<?xml version="1.0" encoding="UTF-8" standalone="no"?>
<!DOCTYPE svg PUBLIC "-//W3C//DTD SVG 1.1//EN" "http://www.w3.org/Graphics/SVG/1.1/DTD/svg11.dtd">
<svg xmlns="http://www.w3.org/2000/svg" version="1.1" viewBox="0 0 512 512">
<g stroke-width="2.0" fill="none" stroke-linecap="butt">
<path stroke="#808080" vector-effect="non-scaling-stroke" d="
  M 404.96 54.75
  L 406.46 70.00"
/>
<path stroke="#713810" vector-effect="non-scaling-stroke" d="
  M 406.46 70.00
  Q 403.88 69.86 402.00 69.25
  Q 325.76 44.61 249.38 20.40
  Q 238.37 16.92 232.32 16.47
  Q 218.40 15.43 205.95 21.29
  Q 203.49 22.45 188.83 31.61
  Q 148.10 57.05 106.98 82.93
  C 106.29 83.36 105.38 83.08 105.05 82.34
  Q 103.87 79.67 101.29 77.25"
/>
<path stroke="#f1b890" vector-effect="non-scaling-stroke" d="
  M 406.46 70.00
  Q 408.50 85.73 410.06 101.51
  Q 410.66 107.49 412.28 110.13
  Q 416.38 116.81 426.28 115.66
  C 426.67 115.62 426.95 115.26 426.91 114.86
  L 422.29 70.25"
/>
<path stroke="#713810" vector-effect="non-scaling-stroke" d="
  M 422.29 70.25
  Q 467.14 69.77 512.00 70.06"
/>
<path stroke="#713810" vector-effect="non-scaling-stroke" d="
  M 512.00 146.06
  Q 468.00 145.95 423.49 146.00
  Q 422.82 146.00 422.22 146.30
  Q 394.07 160.29 364.61 166.05
  Q 343.60 170.16 323.50 167.25
  Q 305.40 164.63 291.45 153.12
  Q 286.25 148.83 281.86 142.23
  Q 274.97 131.86 269.49 119.50
  C 269.24 118.93 268.67 118.56 268.05 118.57
  Q 231.63 119.04 194.66 118.57
  Q 188.30 118.49 185.05 117.07
  Q 180.08 114.91 177.41 110.43
  Q 173.83 104.40 175.81 97.18
  Q 177.88 89.59 185.29 86.71
  Q 189.04 85.25 197.40 85.25
  Q 245.07 85.25 292.75 85.25
  C 293.03 85.25 293.25 85.03 293.25 84.75
  L 293.19 71.30
  C 293.19 71.03 292.96 70.81 292.68 70.81
  Q 245.32 70.71 197.97 70.74
  Q 186.67 70.75 181.68 72.25
  Q 167.41 76.54 161.77 91.71
  C 161.63 92.08 161.37 92.39 161.02 92.58
  Q 119.80 115.03 79.22 137.15
  Q 66.61 144.02 61.11 145.49
  Q 41.65 150.68 23.75 136.57
  C 23.25 136.18 23.29 135.42 23.83 135.08
  L 92.26 92.05
  C 92.64 91.81 92.74 91.28 92.48 90.87
  L 88.96 85.25"
/>
<path stroke="#808080" vector-effect="non-scaling-stroke" d="
  M 420.54 55.00
  L 422.29 70.25"
/>
<path stroke="#808080" vector-effect="non-scaling-stroke" d="
  M 255.84 232.32
  Q 254.33 230.64 249.56 224.69
  Q 240.59 213.48 227.23 212.05
  Q 216.67 210.91 207.96 215.86
  Q 196.67 222.26 194.00 236.50
  Q 192.17 246.26 196.37 254.77
  Q 198.50 259.10 205.68 266.43
  Q 230.30 291.57 255.58 316.70
  C 255.81 316.93 256.19 316.93 256.42 316.70
  Q 282.60 290.23 309.06 263.81
  Q 320.71 252.18 317.96 236.81
  Q 316.53 228.83 312.13 223.06
  Q 307.34 216.77 299.69 213.81
  Q 288.37 209.44 276.61 214.18
  Q 268.66 217.38 263.19 223.93
  Q 259.75 228.04 256.49 232.29
  C 256.33 232.50 256.02 232.51 255.84 232.32"
/>
<path stroke="#713810" vector-effect="non-scaling-stroke" d="
  M 425.50 425.21
  Q 425.97 424.62 425.57 424.16
  Q 425.19 423.72 425.14 423.64
  Q 423.77 421.28 422.26 419.02
  C 422.06 418.72 422.15 418.32 422.45 418.13
  Q 454.48 398.14 486.36 378.15
  Q 486.43 378.11 487.69 377.42
  Q 489.92 376.21 487.87 374.89
  Q 486.42 373.95 486.32 373.87
  Q 469.58 361.34 450.87 366.47
  Q 445.38 367.98 432.79 374.85
  Q 391.98 397.10 352.04 418.83
  Q 350.56 419.64 349.88 421.18
  Q 343.56 435.49 330.37 439.78
  Q 325.90 441.24 316.96 441.31
  Q 268.14 441.71 219.32 441.44
  C 219.03 441.44 218.79 441.22 218.76 440.94
  Q 218.11 434.45 218.83 427.24
  C 218.85 426.96 219.09 426.75 219.37 426.75
  Q 267.37 426.75 315.75 426.70
  Q 318.15 426.69 320.55 426.58
  Q 323.21 426.45 325.24 425.76
  Q 336.57 421.90 336.82 410.46
  Q 336.93 405.39 334.56 401.45
  Q 331.88 396.98 327.21 395.00
  Q 323.68 393.50 314.10 393.50
  Q 279.16 393.50 244.05 393.50
  C 243.36 393.50 242.73 393.09 242.45 392.46
  Q 238.78 384.12 234.37 376.44
  Q 229.00 367.11 223.93 361.95
  Q 215.69 353.56 204.34 349.11
  Q 190.94 343.86 176.50 343.67
  Q 165.00 343.53 159.50 344.25
  Q 123.74 348.96 90.85 365.23
  Q 89.29 366.00 87.55 366.00
  Q 44.12 366.05 0.00 365.94"
/>
<path stroke="#713810" vector-effect="non-scaling-stroke" d="
  M 413.50 432.79
  Q 410.92 430.34 409.58 427.38
  C 409.37 426.92 408.81 426.75 408.38 427.02
  Q 363.40 455.26 318.42 483.38
  Q 306.50 490.84 300.85 492.81
  Q 291.13 496.20 280.74 495.62
  Q 274.51 495.27 264.04 492.00
  Q 257.72 490.03 247.69 486.81
  Q 178.10 464.51 108.50 442.25
  Q 106.73 441.68 96.79 442.00"
/>
<path stroke="#f1b890" vector-effect="non-scaling-stroke" d="
  M 96.79 442.00
  Q 95.29 425.70 93.91 409.39
  Q 93.35 402.77 91.68 399.94
  Q 87.67 393.17 77.81 394.30
  C 77.36 394.35 77.03 394.76 77.07 395.21
  L 81.21 442.00"
/>
<path stroke="#713810" vector-effect="non-scaling-stroke" d="
  M 81.21 442.00
  Q 40.60 442.05 0.00 441.94"
/>
<path stroke="#808080" vector-effect="non-scaling-stroke" d="
  M 96.79 442.00
  Q 97.38 448.12 97.75 454.25
  Q 97.85 455.97 96.75 456.04"
/>
<path stroke="#808080" vector-effect="non-scaling-stroke" d="
  M 82.50 456.96
  L 81.21 442.00"
/>
</g>
<path fill="#000000" d="
  M 404.96 54.75
  L 406.46 70.00
  Q 403.88 69.86 402.00 69.25
  Q 325.76 44.61 249.38 20.40
  Q 238.37 16.92 232.32 16.47
  Q 218.40 15.43 205.95 21.29
  Q 203.49 22.45 188.83 31.61
  Q 148.10 57.05 106.98 82.93
  C 106.29 83.36 105.38 83.08 105.05 82.34
  Q 103.87 79.67 101.29 77.25
  Q 100.59 74.89 98.67 72.43
  C 98.13 71.75 98.30 70.74 99.04 70.28
  Q 143.29 42.41 187.57 14.85
  Q 198.88 7.81 205.18 5.50
  Q 220.32 -0.04 236.43 1.90
  Q 242.86 2.67 255.78 6.79
  Q 326.54 29.32 397.25 52.01
  Q 401.14 53.26 404.96 54.75
  Z"
/>
<path fill="#e27020" d="
  M 406.46 70.00
  Q 408.50 85.73 410.06 101.51
  Q 410.66 107.49 412.28 110.13
  Q 416.38 116.81 426.28 115.66
  C 426.67 115.62 426.95 115.26 426.91 114.86
  L 422.29 70.25
  Q 467.14 69.77 512.00 70.06
  Q 512.00 108.06 512.00 146.06
  Q 468.00 145.95 423.49 146.00
  Q 422.82 146.00 422.22 146.30
  Q 394.07 160.29 364.61 166.05
  Q 343.60 170.16 323.50 167.25
  Q 305.40 164.63 291.45 153.12
  Q 286.25 148.83 281.86 142.23
  Q 274.97 131.86 269.49 119.50
  C 269.24 118.93 268.67 118.56 268.05 118.57
  Q 231.63 119.04 194.66 118.57
  Q 188.30 118.49 185.05 117.07
  Q 180.08 114.91 177.41 110.43
  Q 173.83 104.40 175.81 97.18
  Q 177.88 89.59 185.29 86.71
  Q 189.04 85.25 197.40 85.25
  Q 245.07 85.25 292.75 85.25
  C 293.03 85.25 293.25 85.03 293.25 84.75
  L 293.19 71.30
  C 293.19 71.03 292.96 70.81 292.68 70.81
  Q 245.32 70.71 197.97 70.74
  Q 186.67 70.75 181.68 72.25
  Q 167.41 76.54 161.77 91.71
  C 161.63 92.08 161.37 92.39 161.02 92.58
  Q 119.80 115.03 79.22 137.15
  Q 66.61 144.02 61.11 145.49
  Q 41.65 150.68 23.75 136.57
  C 23.25 136.18 23.29 135.42 23.83 135.08
  L 92.26 92.05
  C 92.64 91.81 92.74 91.28 92.48 90.87
  L 88.96 85.25
  L 101.29 77.25
  Q 103.87 79.67 105.05 82.34
  C 105.38 83.08 106.29 83.36 106.98 82.93
  Q 148.10 57.05 188.83 31.61
  Q 203.49 22.45 205.95 21.29
  Q 218.40 15.43 232.32 16.47
  Q 238.37 16.92 249.38 20.40
  Q 325.76 44.61 402.00 69.25
  Q 403.88 69.86 406.46 70.00
  Z"
/>
<path fill="#ffffff" d="
  M 420.54 55.00
  L 422.29 70.25
  L 426.91 114.86
  C 426.95 115.26 426.67 115.62 426.28 115.66
  Q 416.38 116.81 412.28 110.13
  Q 410.66 107.49 410.06 101.51
  Q 408.50 85.73 406.46 70.00
  L 404.96 54.75
  Q 411.53 53.77 418.15 53.29
  Q 418.26 53.28 419.31 53.09
  Q 420.88 52.79 420.54 55.00
  Z"
/>
<path fill="#000000" d="
  M 512.00 55.06
  Q 512.00 62.56 512.00 70.06
  Q 467.14 69.77 422.29 70.25
  L 420.54 55.00
  Q 466.27 54.95 512.00 55.06
  Z"
/>
<path fill="#000000" d="
  M 512.00 146.06
  Q 512.00 153.44 512.00 160.81
  Q 470.63 161.14 427.97 161.00
  Q 426.23 160.99 424.68 161.76
  Q 397.39 175.20 367.56 180.56
  Q 345.10 184.60 324.52 182.08
  Q 278.65 176.47 259.88 134.28
  C 259.67 133.81 259.20 133.50 258.68 133.50
  Q 227.50 133.50 197.25 133.50
  Q 192.10 133.50 187.88 133.00
  Q 182.91 132.42 178.84 130.70
  Q 165.41 125.03 161.30 110.46
  C 161.16 109.97 160.60 109.73 160.16 109.98
  Q 121.45 131.32 83.00 151.97
  Q 70.85 158.49 64.80 160.06
  Q 53.73 162.94 41.95 160.97
  Q 19.89 157.27 6.41 139.58
  Q 3.65 135.95 1.21 132.40
  C 0.97 132.06 1.07 131.58 1.42 131.36
  L 84.17 79.50
  C 84.70 79.17 85.40 79.34 85.73 79.89
  L 88.96 85.25
  L 92.48 90.87
  C 92.74 91.28 92.64 91.81 92.26 92.05
  L 23.83 135.08
  C 23.29 135.42 23.25 136.18 23.75 136.57
  Q 41.65 150.68 61.11 145.49
  Q 66.61 144.02 79.22 137.15
  Q 119.80 115.03 161.02 92.58
  C 161.37 92.39 161.63 92.08 161.77 91.71
  Q 167.41 76.54 181.68 72.25
  Q 186.67 70.75 197.97 70.74
  Q 245.32 70.71 292.68 70.81
  C 292.96 70.81 293.19 71.03 293.19 71.30
  L 293.25 84.75
  C 293.25 85.03 293.03 85.25 292.75 85.25
  Q 245.07 85.25 197.40 85.25
  Q 189.04 85.25 185.29 86.71
  Q 177.88 89.59 175.81 97.18
  Q 173.83 104.40 177.41 110.43
  Q 180.08 114.91 185.05 117.07
  Q 188.30 118.49 194.66 118.57
  Q 231.63 119.04 268.05 118.57
  C 268.67 118.56 269.24 118.93 269.49 119.50
  Q 274.97 131.86 281.86 142.23
  Q 286.25 148.83 291.45 153.12
  Q 305.40 164.63 323.50 167.25
  Q 343.60 170.16 364.61 166.05
  Q 394.07 160.29 422.22 146.30
  Q 422.82 146.00 423.49 146.00
  Q 468.00 145.95 512.00 146.06
  Z"
/>
<path fill="#000000" d="
  M 310.14 283.89
  Q 283.36 310.86 256.49 337.76
  C 256.22 338.03 255.78 338.03 255.51 337.76
  Q 223.04 305.20 190.44 272.31
  Q 179.86 261.64 178.82 244.75
  Q 177.69 226.31 189.25 212.50
  Q 195.91 204.55 205.07 200.51
  Q 213.80 196.66 223.99 196.86
  Q 241.04 197.20 255.30 209.05
  C 255.68 209.37 256.24 209.38 256.63 209.07
  Q 278.51 191.49 302.47 199.20
  Q 312.42 202.40 319.59 209.16
  Q 329.65 218.63 332.44 232.33
  Q 334.50 242.46 332.23 252.14
  Q 329.33 264.49 319.96 273.96
  Q 315.06 278.93 310.14 283.89
  Z
  M 255.84 232.32
  Q 254.33 230.64 249.56 224.69
  Q 240.59 213.48 227.23 212.05
  Q 216.67 210.91 207.96 215.86
  Q 196.67 222.26 194.00 236.50
  Q 192.17 246.26 196.37 254.77
  Q 198.50 259.10 205.68 266.43
  Q 230.30 291.57 255.58 316.70
  C 255.81 316.93 256.19 316.93 256.42 316.70
  Q 282.60 290.23 309.06 263.81
  Q 320.71 252.18 317.96 236.81
  Q 316.53 228.83 312.13 223.06
  Q 307.34 216.77 299.69 213.81
  Q 288.37 209.44 276.61 214.18
  Q 268.66 217.38 263.19 223.93
  Q 259.75 228.04 256.49 232.29
  C 256.33 232.50 256.02 232.51 255.84 232.32
  Z"
/>
<path fill="#ffffff" d="
  M 256.49 232.29
  Q 259.75 228.04 263.19 223.93
  Q 268.66 217.38 276.61 214.18
  Q 288.37 209.44 299.69 213.81
  Q 307.34 216.77 312.13 223.06
  Q 316.53 228.83 317.96 236.81
  Q 320.71 252.18 309.06 263.81
  Q 282.60 290.23 256.42 316.70
  C 256.19 316.93 255.81 316.93 255.58 316.70
  Q 230.30 291.57 205.68 266.43
  Q 198.50 259.10 196.37 254.77
  Q 192.17 246.26 194.00 236.50
  Q 196.67 222.26 207.96 215.86
  Q 216.67 210.91 227.23 212.05
  Q 240.59 213.48 249.56 224.69
  Q 254.33 230.64 255.84 232.32
  C 256.02 232.51 256.33 232.50 256.49 232.29
  Z"
/>
<path fill="#000000" d="
  M 425.50 425.21
  Q 425.97 424.62 425.57 424.16
  Q 425.19 423.72 425.14 423.64
  Q 423.77 421.28 422.26 419.02
  C 422.06 418.72 422.15 418.32 422.45 418.13
  Q 454.48 398.14 486.36 378.15
  Q 486.43 378.11 487.69 377.42
  Q 489.92 376.21 487.87 374.89
  Q 486.42 373.95 486.32 373.87
  Q 469.58 361.34 450.87 366.47
  Q 445.38 367.98 432.79 374.85
  Q 391.98 397.10 352.04 418.83
  Q 350.56 419.64 349.88 421.18
  Q 343.56 435.49 330.37 439.78
  Q 325.90 441.24 316.96 441.31
  Q 268.14 441.71 219.32 441.44
  C 219.03 441.44 218.79 441.22 218.76 440.94
  Q 218.11 434.45 218.83 427.24
  C 218.85 426.96 219.09 426.75 219.37 426.75
  Q 267.37 426.75 315.75 426.70
  Q 318.15 426.69 320.55 426.58
  Q 323.21 426.45 325.24 425.76
  Q 336.57 421.90 336.82 410.46
  Q 336.93 405.39 334.56 401.45
  Q 331.88 396.98 327.21 395.00
  Q 323.68 393.50 314.10 393.50
  Q 279.16 393.50 244.05 393.50
  C 243.36 393.50 242.73 393.09 242.45 392.46
  Q 238.78 384.12 234.37 376.44
  Q 229.00 367.11 223.93 361.95
  Q 215.69 353.56 204.34 349.11
  Q 190.94 343.86 176.50 343.67
  Q 165.00 343.53 159.50 344.25
  Q 123.74 348.96 90.85 365.23
  Q 89.29 366.00 87.55 366.00
  Q 44.12 366.05 0.00 365.94
  Q 0.00 358.56 0.00 351.19
  Q 41.50 350.86 84.16 351.00
  Q 85.71 351.01 87.10 350.33
  Q 116.16 336.07 148.49 330.69
  Q 166.03 327.77 183.74 329.31
  Q 232.34 333.55 252.15 377.84
  C 252.33 378.24 252.73 378.50 253.17 378.50
  Q 281.31 378.50 309.75 378.50
  Q 324.43 378.50 329.61 380.03
  Q 344.72 384.48 350.82 401.66
  C 350.96 402.06 351.43 402.23 351.81 402.03
  Q 387.12 382.70 421.96 363.73
  Q 435.59 356.31 435.91 356.16
  Q 440.74 353.88 445.86 352.34
  Q 450.97 350.81 456.28 350.42
  Q 484.75 348.35 503.64 370.33
  Q 507.13 374.39 510.76 379.46
  C 511.03 379.84 510.92 380.37 510.53 380.61
  L 430.61 430.75
  C 430.14 431.04 429.51 430.86 429.28 430.36
  Q 427.90 427.45 425.50 425.21
  Z"
/>
<path fill="#e27020" d="
  M 425.50 425.21
  L 413.50 432.79
  Q 410.92 430.34 409.58 427.38
  C 409.37 426.92 408.81 426.75 408.38 427.02
  Q 363.40 455.26 318.42 483.38
  Q 306.50 490.84 300.85 492.81
  Q 291.13 496.20 280.74 495.62
  Q 274.51 495.27 264.04 492.00
  Q 257.72 490.03 247.69 486.81
  Q 178.10 464.51 108.50 442.25
  Q 106.73 441.68 96.79 442.00
  Q 95.29 425.70 93.91 409.39
  Q 93.35 402.77 91.68 399.94
  Q 87.67 393.17 77.81 394.30
  C 77.36 394.35 77.03 394.76 77.07 395.21
  L 81.21 442.00
  Q 40.60 442.05 0.00 441.94
  Q 0.00 403.94 0.00 365.94
  Q 44.12 366.05 87.55 366.00
  Q 89.29 366.00 90.85 365.23
  Q 123.74 348.96 159.50 344.25
  Q 165.00 343.53 176.50 343.67
  Q 190.94 343.86 204.34 349.11
  Q 215.69 353.56 223.93 361.95
  Q 229.00 367.11 234.37 376.44
  Q 238.78 384.12 242.45 392.46
  C 242.73 393.09 243.36 393.50 244.05 393.50
  Q 279.16 393.50 314.10 393.50
  Q 323.68 393.50 327.21 395.00
  Q 331.88 396.98 334.56 401.45
  Q 336.93 405.39 336.82 410.46
  Q 336.57 421.90 325.24 425.76
  Q 323.21 426.45 320.55 426.58
  Q 318.15 426.69 315.75 426.70
  Q 267.37 426.75 219.37 426.75
  C 219.09 426.75 218.85 426.96 218.83 427.24
  Q 218.11 434.45 218.76 440.94
  C 218.79 441.22 219.03 441.44 219.32 441.44
  Q 268.14 441.71 316.96 441.31
  Q 325.90 441.24 330.37 439.78
  Q 343.56 435.49 349.88 421.18
  Q 350.56 419.64 352.04 418.83
  Q 391.98 397.10 432.79 374.85
  Q 445.38 367.98 450.87 366.47
  Q 469.58 361.34 486.32 373.87
  Q 486.42 373.95 487.87 374.89
  Q 489.92 376.21 487.69 377.42
  Q 486.43 378.11 486.36 378.15
  Q 454.48 398.14 422.45 418.13
  C 422.15 418.32 422.06 418.72 422.26 419.02
  Q 423.77 421.28 425.14 423.64
  Q 425.19 423.72 425.57 424.16
  Q 425.97 424.62 425.50 425.21
  Z"
/>
<path fill="#ffffff" d="
  M 96.79 442.00
  Q 97.38 448.12 97.75 454.25
  Q 97.85 455.97 96.75 456.04
  L 82.50 456.96
  L 81.21 442.00
  L 77.07 395.21
  C 77.03 394.76 77.36 394.35 77.81 394.30
  Q 87.67 393.17 91.68 399.94
  Q 93.35 402.77 93.91 409.39
  Q 95.29 425.70 96.79 442.00
  Z"
/>
<path fill="#000000" d="
  M 413.50 432.79
  L 416.52 438.42
  C 416.78 438.91 416.67 439.49 416.27 439.74
  Q 368.30 469.81 320.29 499.77
  Q 298.40 513.43 273.77 509.83
  Q 267.72 508.94 254.48 504.70
  Q 182.00 481.45 109.50 458.25
  Q 105.61 457.00 102.81 456.94
  C 102.51 456.93 102.20 456.82 101.93 456.62
  Q 100.23 455.34 98.00 456.25
  Q 97.42 456.49 96.75 456.04
  Q 97.85 455.97 97.75 454.25
  Q 97.38 448.12 96.79 442.00
  Q 106.73 441.68 108.50 442.25
  Q 178.10 464.51 247.69 486.81
  Q 257.72 490.03 264.04 492.00
  Q 274.51 495.27 280.74 495.62
  Q 291.13 496.20 300.85 492.81
  Q 306.50 490.84 318.42 483.38
  Q 363.40 455.26 408.38 427.02
  C 408.81 426.75 409.37 426.92 409.58 427.38
  Q 410.92 430.34 413.50 432.79
  Z"
/>
<path fill="#000000" d="
  M 81.21 442.00
  L 82.50 456.96
  Q 42.13 457.03 1.75 457.00
  Q 0.48 457.00 0.00 456.69
  Q 0.00 449.31 0.00 441.94
  Q 40.60 442.05 81.21 442.00
  Z"
/>
</svg>
